Coordinates
version=1
nRows=11
nColumns=36
inDegrees=yes

Units are S.I. units (second, meters, Newtons, ...)
If the header above contains a line with 'inDegrees', this indicates whether rotational values are in degrees (yes) or radians (no).

endheader
time	pelvis_tilt	pelvis_list	pelvis_rotation	pelvis_tx	pelvis_ty	pelvis_tz	hip_flexion_r	hip_adduction_r	hip_rotation_r	knee_angle_r	knee_angle_r_beta	ankle_angle_r	subtalar_angle_r	mtp_angle_r	hip_flexion_l	hip_adduction_l	hip_rotation_l	knee_angle_l	knee_angle_l_beta	ankle_angle_l	subtalar_angle_l	mtp_angle_l	lumbar_extension	lumbar_bending	lumbar_rotation	arm_flex_r	arm_add_r	arm_rot_r	elbow_flex_r	pro_sup_r	arm_flex_l	arm_add_l	arm_rot_l	elbow_flex_l	pro_sup_l
      3.94166670	    -35.20085822	     -0.53292988	     -0.68799193	     -0.98409828	      0.95095056	     -0.00453180	     92.59298023	     -3.23761129	     -4.92553474	     94.67725220	      1.65242978	     38.30120481	    -15.70989095	     -7.49999987	     93.40763553	     -7.77011876	      3.87686320	     97.10584368	      1.69481670	     40.80730050	      1.76315683	     -7.49999987	    -31.94298355	      1.14187836	      5.79661435	     91.40499323	    -23.67415916	      8.37226557	    113.90583432	     99.93124172	     75.54704348	    -13.78786441	      6.24367565	    116.64314169	     89.90051046
      3.94583330	    -35.42208452	     -0.57735126	     -0.72963113	     -0.98292491	      0.94920746	     -0.00255833	     92.92108080	     -3.17016092	     -4.98525447	     95.07881024	      1.65943829	     38.50269850	    -15.49104763	     -7.49999987	     93.82881649	     -7.94810715	      3.92696356	     97.55563094	      1.70266696	     41.03172042	      2.14535574	     -7.49999987	    -31.90426687	      1.13476857	      5.83134642	     92.06241388	    -23.35083596	      8.49829042	    114.37342643	     99.02774407	     76.00887579	    -13.69941399	      6.34989067	    117.00844674	     89.21871824
      3.95000000	    -35.55136418	     -0.59780623	     -0.86063385	     -0.98140809	      0.94319605	     -0.00168185	     93.33400907	     -3.07846191	     -5.06501854	     95.74350198	      1.67103935	     38.91318575	    -15.13762378	     -7.49999987	     94.26985699	     -8.26241752	      3.99735499	     98.24344979	      1.71467167	     41.47673746	      2.33961778	     -7.49999987	    -31.87152071	      1.10057423	      5.98279715	     92.75841801	    -23.16654042	      8.68031581	    114.87055094	     98.10295988	     76.47168860	    -13.61241970	      6.39719437	    117.31446492	     88.78793852
      3.95416670	    -35.66206894	     -0.68969042	     -0.85870648	     -0.98324906	      0.94276685	      0.00080645	     93.62161953	     -2.93489116	     -5.26016951	     96.16282899	      1.67835798	     39.22649758	    -15.04772022	     -7.49999987	     94.65287405	     -8.50654008	      4.10395452	     98.66702978	      1.72206453	     41.58091898	      2.54160263	     -7.49999987	    -31.99862025	      1.04297939	      6.04149212	     93.28898103	    -22.94136478	      8.65484496	    115.34631651	     97.66364760	     77.20155364	    -13.60679915	      6.50752883	    117.50703745	     88.45254470
      3.95833330	    -35.88067641	     -0.67361985	     -1.00446720	     -0.97971676	      0.93734918	     -0.00073423	     94.13945000	     -2.84302806	     -5.30014236	     96.86295638	      1.69057751	     39.64354950	    -15.03418247	     -7.49999987	     95.12986246	     -8.80957083	      4.19892027	     99.28452108	      1.73284179	     41.93319238	      2.63862255	     -7.49999987	    -31.78883689	      0.97866707	      6.12669504	     93.80786885	    -22.66743523	      8.67844093	    115.56594428	     97.94652643	     77.78861630	    -13.63315150	      6.48024297	    117.41299755	     88.72680701
      3.96250000	    -36.06095672	     -0.66753226	     -1.18121954	     -0.97873519	      0.93267638	     -0.00102011	     94.59879836	     -2.82728526	     -5.39262591	     97.60418563	      1.70351440	     40.15743522	    -14.59241199	     -7.49999987	     95.61876885	     -9.09104471	      4.23367003	    100.00931754	      1.74549187	     42.40951560	      3.00768276	     -7.49999987	    -31.56365836	      0.86814312	      6.23363578	     94.11035705	    -22.52133045	      8.46225225	    115.95841781	    102.40729750	     78.45857451	    -13.70327905	      6.51592213	    117.34640201	     94.11642904
      3.96666670	    -36.19137559	     -0.71524348	     -1.21536072	     -0.98183233	      0.93021321	      0.00256211	     95.14494052	     -2.74118964	     -5.59331548	     98.15953674	      1.71320711	     40.43059148	    -14.66744817	     -7.49999987	     96.19037559	     -9.30209584	      4.38190244	    100.62436162	      1.75622642	     42.41695725	      3.07406159	     -7.49999987	    -31.52753989	      0.75161291	      6.12763221	     94.54563820	    -22.22743281	      8.41493459	    116.14504260	    102.38896781	     79.53617191	    -13.77073176	      6.57182554	    117.24780566	     94.15649489
      3.97083330	    -36.30292324	     -0.70107593	     -1.35296846	     -0.98245516	      0.93040824	      0.00144192	     95.57805455	     -2.64481250	     -5.71516213	     98.49506027	      1.71906310	     40.30411979	    -14.83276522	     -7.49999987	     96.58418402	     -9.51592579	      4.42833973	    100.97868076	      1.76241045	     42.26943968	      3.25859319	     -7.49999987	    -31.68227247	      0.58563073	      6.08354592	     95.25226011	    -21.94576141	      8.36515792	    116.21399766	    101.28597344	     80.81632123	    -14.02185331	      7.13529734	    116.94351419	     93.45230749
      3.97500000	    -36.52185230	     -0.64827026	     -1.54540680	     -0.97796532	      0.92652362	     -0.00213644	     95.86949813	     -2.68525924	     -5.69476949	     98.75901333	      1.72366995	     40.38562025	    -14.82809407	     -7.49999987	     96.88120962	     -9.73155771	      4.32344620	    101.37408828	      1.76931162	     42.42202377	      3.36525445	     -7.49999987	    -31.58256640	      0.57839457	      6.08434004	     95.69634058	    -21.70573417	      8.31835640	    116.46812333	    101.34098714	     81.53164507	    -14.05329695	      7.34808024	    116.90415039	     93.56182709
      3.97916670	    -36.76925852	     -0.62915829	     -1.66456486	     -0.98000766	      0.92215883	      0.00008771	     96.34138034	     -2.65665722	     -5.66082120	     99.09861565	      1.72959713	     40.49469604	    -14.74440516	     -7.49999987	     97.41227218	     -9.92830438	      4.32021491	    101.90194964	      1.77852454	     42.68936048	      3.39886213	     -7.49999987	    -31.47166038	      0.50325474	      6.06275651	     96.30681942	    -21.36602313	      8.25869824	    116.70581908	    101.37395525	     82.48059426	    -14.05489879	      7.50828498	    116.86399981	     93.64775933
      3.98333330	    -36.77446112	     -0.61560235	     -1.87789573	     -0.97828716	      0.92023239	     -0.00056689	     96.53243363	     -2.64023793	     -5.74534406	     99.46166768	      1.73593358	     40.86762387	    -14.13337408	     -7.49999987	     97.66929008	    -10.20734133	      4.33109515	    102.44652546	      1.78802918	     42.93058720	      3.89807349	     -7.49999987	    -31.68379913	      0.35819000	      6.02830510	     97.05951696	    -21.09400509	      8.17977405	    117.04733595	     99.60852720	     83.58731124	    -14.38286432	      8.34253269	    116.81446860	     92.15737008
